{
    "asset" : {
        "generator" : "Khronos glTF Blender I/O v1.8.19",
        "version" : "2.0"
    },
    "scene" : 0,
    "scenes" : [
        {
            "name" : "Scene",
            "nodes" : [
                0
            ]
        }
    ],
    "nodes" : [
        {
            "mesh" : 0,
            "name" : "Plane"
        }
    ],
    "meshes" : [
        {
            "name" : "Plane.001",
            "primitives" : [
                {
                    "attributes" : {
                        "POSITION" : 0,
                        "NORMAL" : 1,
                        "TEXCOORD_0" : 2
                    },
                    "indices" : 3
                }
            ]
        }
    ],
    "accessors" : [
        {
            "bufferView" : 0,
            "componentType" : 5126,
            "count" : 62193,
            "max" : [
                29.999998092651367,
                30,
                1.7881393432617188e-06
            ],
            "min" : [
                -29.999998092651367,
                -30,
                -1.7881393432617188e-06
            ],
            "type" : "VEC3"
        },
        {
            "bufferView" : 1,
            "componentType" : 5126,
            "count" : 62193,
            "type" : "VEC3"
        },
        {
            "bufferView" : 2,
            "componentType" : 5126,
            "count" : 62193,
            "type" : "VEC2"
        },
        {
            "bufferView" : 3,
            "componentType" : 5123,
            "count" : 244824,
            "type" : "SCALAR"
        }
    ],
    "bufferViews" : [
        {
            "buffer" : 0,
            "byteLength" : 746316,
            "byteOffset" : 0
        },
        {
            "buffer" : 0,
            "byteLength" : 746316,
            "byteOffset" : 746316
        },
        {
            "buffer" : 0,
            "byteLength" : 497544,
            "byteOffset" : 1492632
        },
        {
            "buffer" : 0,
            "byteLength" : 489648,
            "byteOffset" : 1990176
        }
    ],
    "buffers" : [
        {
            "byteLength" : 2479824,
            "uri" : "data:application/octet-stream;base64,"
        }
    ]
}
